<svg xmlns="http://www.w3.org/2000/svg" width="640" height="480">
<rect width="100%" height="100%" fill="white" />
<text x="320.0" y="28" text-anchor="middle" font-family="sans-serif" font-size="16">SMOKE TEST / PRELIMINARY — validation</text>
<line x1="60.00" y1="420.00" x2="580.00" y2="60.00" stroke="#9ca3af" stroke-dasharray="5,5" />
<line x1="60" y1="420" x2="580" y2="420" stroke="black" />
<line x1="60" y1="60" x2="60" y2="420" stroke="black" />
<text x="320.0" y="465" text-anchor="middle" font-family="sans-serif" font-size="13">Additive delta NLL</text>
<text x="18" y="240.0" text-anchor="middle" transform="rotate(-90 18 240.0)" font-family="sans-serif" font-size="13">Measured pair delta NLL</text>
<circle cx="460.09" cy="60.00" r="4" fill="#2563eb" />
<circle cx="440.45" cy="142.83" r="4" fill="#2563eb" />
<circle cx="448.10" cy="118.49" r="4" fill="#2563eb" />
<circle cx="447.77" cy="152.42" r="4" fill="#2563eb" />
<circle cx="494.00" cy="123.60" r="4" fill="#2563eb" />
<circle cx="72.32" cy="403.62" r="4" fill="#2563eb" />
<circle cx="79.96" cy="399.75" r="4" fill="#2563eb" />
<circle cx="79.64" cy="405.49" r="4" fill="#2563eb" />
<circle cx="125.87" cy="374.29" r="4" fill="#2563eb" />
<circle cx="60.32" cy="415.45" r="4" fill="#2563eb" />
<circle cx="60.00" cy="419.39" r="4" fill="#2563eb" />
<circle cx="106.23" cy="386.74" r="4" fill="#2563eb" />
<circle cx="67.65" cy="413.25" r="4" fill="#2563eb" />
<circle cx="113.88" cy="385.42" r="4" fill="#2563eb" />
<circle cx="113.55" cy="376.15" r="4" fill="#2563eb" />
</svg>
